<?xml version="1.0" encoding="utf-8"?>
<!-- Generator: Adobe Illustrator 25.2.0, SVG Export Plug-In . SVG Version: 6.00 Build 0)  -->
<svg version="1.1" id="Layer_1" xmlns="http://www.w3.org/2000/svg" xmlns:xlink="http://www.w3.org/1999/xlink" x="0px" y="0px"
	 viewBox="0 0 196 50" style="enable-background:new 0 0 196 50;" xml:space="preserve">
<style type="text/css">
	.st0{fill:#FFFFFF;}
</style>
<g>
	<path class="st0" d="M32,16.4H8.4c-0.5,0-0.9,0.4-0.9,1l2.9,23.1c0,0.5,0.4,0.8,0.9,0.8h18c0.5,0,0.8-0.3,0.9-0.8l2.9-23.1
		C33,16.9,32.6,16.4,32,16.4z"/>
	<path class="st0" d="M31.6,9.6h-6.4V8.4c0-2.4-2-4.4-4.4-4.4h-1.2c-2.4,0-4.4,2-4.4,4.4v1.2H8.8c-0.8,0-1.4,0.6-1.4,1.4v1.7
		c0,0.8,0.6,1.4,1.4,1.4h22.8c0.8,0,1.4-0.6,1.4-1.4v-1.7C33,10.3,32.4,9.6,31.6,9.6z M17.5,8.4c0-1.2,1-2.1,2.1-2.1h1.2
		c1.2,0,2.1,1,2.1,2.1v1.2h-5.5V8.4z"/>
</g>
<g>
	<path class="st0" d="M65.7,17.3c2.1,2.2,3.2,5.3,3.2,9.4s-1.1,7.2-3.2,9.4c-2.1,2.2-5.2,3.3-9.2,3.3H45.8V14h10.8
		C60.6,14,63.6,15.1,65.7,17.3z M60.6,32.5c1-1.3,1.5-3.2,1.5-5.8c0-2.6-0.5-4.5-1.5-5.8c-1-1.3-2.6-1.9-4.7-1.9h-3.5v15.4h3.5
		C58.1,34.5,59.6,33.8,60.6,32.5z"/>
	<path class="st0" d="M93.8,34.4v5.1H73.5V14h19.8v5.1H80.1v5.2h10.5v4.8H80.1v5.2H93.8z"/>
	<path class="st0" d="M117.2,34.4v5.1H97.8V14h6.6v20.3H117.2z"/>
	<path class="st0" d="M141.3,34.4v5.1H121V14h19.8v5.1h-13.2v5.2h10.5v4.8h-10.5v5.2H141.3z"/>
	<path class="st0" d="M166.7,19.2h-8.3v20.3h-6.6V19.2h-8.3V14h23.2V19.2z"/>
	<path class="st0" d="M190.8,34.4v5.1h-20.3V14h19.8v5.1h-13.2v5.2h10.5v4.8h-10.5v5.2H190.8z"/>
</g>
</svg>
