<?xml version="1.0" encoding="utf-8"?>
<!-- Generator: Adobe Illustrator 25.0.1, SVG Export Plug-In . SVG Version: 6.00 Build 0)  -->
<svg version="1.1" id="Layer_1" xmlns="http://www.w3.org/2000/svg" xmlns:xlink="http://www.w3.org/1999/xlink" x="0px" y="0px"
	 viewBox="0 0 158.3 158.3" style="enable-background:new 0 0 158.3 158.3;" xml:space="preserve">
<style type="text/css">
	.st0{fill:url(#SVGID_1_);}
	.st1{fill:url(#SVGID_2_);}
	.st2{fill:url(#SVGID_3_);}
	.st3{fill:#FFFFFF;}
</style>
<g>
	
		<linearGradient id="SVGID_1_" gradientUnits="userSpaceOnUse" x1="51.9741" y1="201.5975" x2="121.3318" y2="399.7623" gradientTransform="matrix(1 0 0 1 0 -200)">
		<stop  offset="8.519346e-02" style="stop-color:#2AAFEC"/>
		<stop  offset="1" style="stop-color:#3B70ED"/>
	</linearGradient>
	<circle class="st0" cx="79.1" cy="79.1" r="76.2"/>
	<g>
		
			<linearGradient id="SVGID_2_" gradientUnits="userSpaceOnUse" x1="137.2" y1="343.7" x2="148.7731" y2="343.7" gradientTransform="matrix(1 0 0 1 0 -200)">
			<stop  offset="8.519346e-02" style="stop-color:#2AAFEC"/>
			<stop  offset="1" style="stop-color:#3B70ED"/>
		</linearGradient>
		<path class="st1" d="M143,137.8c-3.2,0-5.8,2.6-5.8,5.9c0,3.3,2.6,5.9,5.8,5.9s5.8-2.6,5.8-5.9C148.8,140.4,146.2,137.8,143,137.8
			z M143,148.5c-2.6,0-4.6-2.1-4.6-4.8s2-4.8,4.6-4.8s4.6,2.1,4.6,4.8S145.6,148.5,143,148.5z"/>
		
			<linearGradient id="SVGID_3_" gradientUnits="userSpaceOnUse" x1="140.9839" y1="343.65" x2="145.527" y2="343.65" gradientTransform="matrix(1 0 0 1 0 -200)">
			<stop  offset="8.519346e-02" style="stop-color:#2AAFEC"/>
			<stop  offset="1" style="stop-color:#3B70ED"/>
		</linearGradient>
		<path class="st2" d="M144.1,144.2L144.1,144.2c0.5-0.2,1.1-0.7,1.1-1.7c0-1.1-0.8-1.9-1.9-1.9H141v6.1h1.2v-2.4h1l1.1,2.4h1.3
			l-1.2-2.3C144.2,144.2,144.1,144.2,144.1,144.2z M143.1,143.5h-1v-2h1c0.6,0,1,0.4,1,1C144.1,143.2,143.7,143.5,143.1,143.5z"/>
	</g>
	<g>
		<g>
			<path class="st3" d="M54.8,56.9c-0.5-0.3-0.8-0.6-1.3-1s-1-0.6-1.5-0.5c-0.5,0-1,0.3-1.1,0.7c-0.1,0.3,0,0.6,0,0.8
				c0.1,0.8,0.1,1.6,0.2,2.4c0.1,2.1,0.2,4.3,0.2,6.4c1.2-3.1,3.1-3.5,5.1-1.6c0.5-0.6,0.7-1,1-1.5c0.1-0.1,0.3-0.2,0.4-0.1
				c1.4,0.8,3.1,0.6,4.5-0.1c1.8-1,2.9-2.8,4.1-4.3c0.9-1.2,2-2,3.2-2.9c-2.4-0.5-5.2,0.5-7.3,1.3c-1.5,0.6-3.1,1.1-4.6,1.1
				C56.7,57.8,55.7,57.4,54.8,56.9z M98.4,99.9c1.1-0.8,2.6-1.3,4.1-1.3c1.1,0,2.2,0.3,3.1,0.7l0.7-10.4c-0.1,0-0.3,0-0.4,0
				c-3.2,0-5.9-0.6-8.6-2.7L98.4,99.9z M89.2,46.6c2.5-0.1,4.9-0.3,7.4-0.5c3.2-0.3,6.6-0.9,8.6-3.7c2.8-4,6.5-5.7,10.8-6.6
				c3.8-0.6,8.2,0.6,8.2,0.6c-5.5-3-12.1-5.6-17.2-4c-2,0.6-4,2.4-5.1,4.5c-0.6,1.3-2,3.1-2.7,3.7c-0.1,0.1-0.3,0-0.3-0.1v-5.4
				c0,0-1.2,0.5-1.6,0.6c-5.3,1.9-9.4,2.7-14.4-1.6c-3.2-2.8-5.4-1.6-6.4,0.9l0.7,17.8C80.4,49.6,84.7,46.9,89.2,46.6z M102.4,72.3
				L96.1,83c0,0,2.1,1.9,6.5,1.9c4.3,0,6.2-1.8,6.4-1.9C105.8,80.1,103.8,77,102.4,72.3z M28,66.5l-9.8,17.7c0,0,3.8,2.5,11,1.8
				c7.1-0.6,10.1-3.4,10.4-3.8C35.3,78.6,30.1,73.6,28,66.5z M60.6,84.4c0,0,5.4,4.3,16.5,4.3c11,0,15.9-3.8,16.5-4.3
				c-7-7.1-12.9-15.9-16.5-26.3L60.6,84.4z M33,92.8c-4.8,0-9.4-2.1-12.5-5.4c0,0,0.6,9.2,4.3,18.5c5.2,12.6,13.3,18.5,13.3,18.5
				l-1.8-31.9C35.6,92.7,33.9,92.8,33,92.8z M114.4,94.3c0,0-1,13.7,6.7,29l0.1-0.1c0,0,3.1-3.8,6.1-11.2c2.6-6.4,3-11.6,3-11.6
				s-1.4,0.4-2.7,0.3C121.8,100.5,117.3,97.8,114.4,94.3z M136.8,60.8c-0.8,0.5-2.2,1-4,0.2c-2.1-1-3.3-2.5-5.6-2.9
				c-1.9-0.4-3,0.5-3,2.2l0.2,7.5c0.6-0.8,1.1-1.5,1.5-1.9c1.3-1.8,3.2-2.1,5.7-0.6c1.8,1.1,3.4,1.4,5.2,0.3
				c2.1-1.4,3.4-3.3,6.4-4.4C141.1,59.9,139.4,59.4,136.8,60.8z M113,89.4c0,0,3.8,3.3,10.8,4.2c6.9,0.8,10.3-1.3,10.6-1.7
				c-4.1-4.4-8.1-10.4-10.1-18.4L113,89.4z M44.9,55.4c0.5-0.1,0.9-0.4,1.4-0.6c2.6-1.5,4.8-3.7,7.1-5.5c1.1-0.9,2.7-2.3,3.9-3.1
				c2.1-1.4,3.2-1.2,3.2-1.2c-2.1-0.9-4.6,0.1-7,0.6c-3.2,0.8-6.4,2-9.6,3c-2.6,0.7-5,0.5-7.1-1.4c-2.4-2-7.5-5.1-8.7-2.5l0.5,12.2
				c1.2-0.5,2.1-1.2,3.4-2.9c1.1-1.4,2.6-0.6,3.4,0c1,0.8,2.2,1.6,3.5,1.9c0.2-1-0.2-2.6,0.9-3c0.7-0.2,1.1,0.3,1.2,0.5
				c0.3,0.6-0.1,1,0.1,1.6C41.1,55.1,43,55.8,44.9,55.4z M158.3,79.1c0,43.6-35.5,79.1-79.1,79.1S0,122.8,0,79.1S35.5,0,79.1,0
				C122.9,0.1,158.3,35.6,158.3,79.1z M153.2,79.1C153.2,38.2,120,5,79.1,5s-74,33.2-74,74.1s33.1,74.1,74.1,74.1
				S153.2,120.1,153.2,79.1z M82.3,96.8c1.7,0,3.3-0.2,4.9-0.6c0,0-2.8,20.7-2.8,43.7h-2.7c-7.1,0.1-13.2-5.3-14-12.4
				c-1.5-14.5-3.9-38.4-4.2-38.6C68,94.4,75,96.8,82.3,96.8z M76.6,99.6c-7.2,0.5-5.4,12.8-5.1,14.2c0,0.1,0.1,0.1,0.2,0.1h10
				c0.2,0,0.2,0,0.3-0.1C82.1,111.7,83.2,99.6,76.6,99.6z M60.7,106.9c-0.1-0.4-0.2-0.7-0.5-1c-0.4-0.4-1-0.6-1.6-0.5
				s-0.8,0.5-1.1,0.9c-0.5,0.7-1.3,1.1-2.1,1.1c-0.9,0-1.8-0.5-2.5-1.2c-0.3-0.4-0.6-0.7-0.7-1.2c-0.2-0.5-0.2-1.3-0.8-1.7
				c-0.4-0.3-1.2-0.4-1.7,0.3c-0.3,0.4-0.5,0.7-0.8,1s-0.8,0.4-1.3,0.4c-1.3,0-2.6-0.9-2.9-2.2c-0.1-0.6-0.1-1.2-0.7-1.4
				c-0.8-0.2-1.2,0.3-1.2,1c0,2.4,0.3,6.6,0.5,9.5c1.3,17.1,11.4,23.2,20.4,24.8c0,0-2.8-28.5-2.8-28.9
				C60.7,107.6,60.7,107.2,60.7,106.9z M110.6,103.4c-0.6,0-1.2,0.4-1.5,0.9c-0.6,1.5-1.9,3.1-3.4,3c-1,0-1.8-0.6-2.2-1.3
				c-0.4-0.6-1.1-1-1.8-0.8c-0.5,0.1-1.1,0.4-1.5,1.4c-0.6,1.7-2.1,3.2-3.9,3.1c-1.1,0-1.8-0.4-2.4-1.2l-0.2-0.3
				c-0.4-0.6-1.7-0.2-1.8,0.8c-0.4,1.8-1.6,16.5-0.6,25.3c0.3,2.4,2.3,4.2,4.6,3.5l0.6-0.3c0-4.8,0.2-12.1,0.5-14.3
				c0.6-4.4,3-6.9,5.3-7.1c2.9-0.3,5,2,5,7c0,1.1,0,2,0,4.5c0,2.7,2.4,4.3,4.6,2.9L112,105C112,104.1,111.3,103.4,110.6,103.4z
				 M118.3,62.1c-1.5-0.2-2.8-0.1-3.7,0.1c-2,0.4-3.5,1.2-5.5,1c-1.5-0.3-2.6-1-3.7-2c-0.1-0.1-0.2-0.2-0.4-0.4
				c-0.4-0.4-0.8-0.7-1.4-0.9s-1.5,0-1.9,0.6l0.5,8c1.6-3,3.1-2.3,4.5-1.6c0.4-0.5,0.7-0.8,1.1-1.3c0.1-0.1,0.2-0.1,0.3,0
				c1.5,2,3.2,2.3,4.8,0.3C115.7,62.3,118.3,62.1,118.3,62.1z"/>
			<path class="st3" d="M58.2,80.6c-0.3,0.2-2.1,1.9-6.4,1.9s-6.5-1.9-6.5-1.9l6.4-10.4C53.3,74.8,56.6,79.4,58.2,80.6z"/>
			<path class="st3" d="M48.1,96.6c1.1-0.8,2.6-1.3,4.1-1.3c1.1,0,2.2,0.6,3.1,1.1l0.7-10c-0.1,0-0.3,0-0.4,0c-3.2,0-6.2-1-8.6-2.7
				L48.1,96.6z"/>
		</g>
	</g>
</g>
</svg>
