<?xml version="1.0" encoding="utf-8"?>
<!-- Generator: Adobe Illustrator 25.0.1, SVG Export Plug-In . SVG Version: 6.00 Build 0)  -->
<svg version="1.1" id="Layer_1" xmlns="http://www.w3.org/2000/svg" xmlns:xlink="http://www.w3.org/1999/xlink" x="0px" y="0px"
	 viewBox="0 0 137.2 137.8" style="enable-background:new 0 0 137.2 137.8;" xml:space="preserve">
<style type="text/css">
	.st0{fill:#EF2219;}
	.st1{fill:#FFFFFF;}
</style>
<g>
	<path class="st0" d="M121.1,63.5c0,10.5-7.2,19.4-16.6,20.4c-11.1,1.3-25.7,1.7-36.7,1.7c-10.7,0-25.4-0.4-36.7-1.7
		c-9.4-1.1-16.6-9.9-16.6-20.4V37.9c0-10.5,7.2-19.4,16.6-20.4c11.3-1.3,25.9-1.8,34.8-1.8c11.4,0,26.9,0.5,38.5,1.8
		c9.4,1,16.6,9.9,16.6,20.4V63.5z"/>
	<path class="st1" d="M56.3,32.8v35.7c0,0.9,1,1.4,1.7,1L89,51.7c0.8-0.4,0.8-1.6,0-2L58,31.8C57.3,31.3,56.3,31.9,56.3,32.8z"/>
	<path d="M31,93.2h-5.8v12.3h2.6v-4.4H31c2.7,0,4.1-1.8,4.1-3.9C35.2,95,33.7,93.2,31,93.2z M30.7,98.8h-2.8v-3.4h2.8
		c1,0,1.8,0.7,1.8,1.7C32.5,98.2,31.7,98.8,30.7,98.8z"/>
	<path d="M46.7,97.1c0-2.3-1.6-4-4.1-4h-5.8v12.3h2.6v-4.4h1.9l2.4,4.4h3l-2.8-4.7C45.3,100.5,46.7,99.3,46.7,97.1z M42.2,98.8h-2.8
		v-3.4h2.8c1.1,0,1.8,0.7,1.8,1.7C44,98.2,43.2,98.8,42.2,98.8z"/>
	<path d="M54.5,93c-3.7,0-6.4,2.7-6.4,6.4c0,3.7,2.7,6.4,6.4,6.4c3.7,0,6.4-2.7,6.4-6.4C60.9,95.6,58.2,93,54.5,93z M54.5,103.4
		c-2.3,0-3.7-1.8-3.7-4c0-2.3,1.5-4,3.7-4s3.7,1.7,3.7,4C58.2,101.6,56.8,103.4,54.5,103.4z"/>
	<path d="M67.6,93.2h-4.9v12.3h4.9c3.9,0,6.5-2.4,6.5-6.1C74.2,95.6,71.5,93.2,67.6,93.2z M67.6,103.2h-2.2v-7.7h2.2
		c2.5,0,3.9,1.7,3.9,3.9C71.5,101.4,70.1,103.2,67.6,103.2z"/>
	<path d="M84.4,100.5c0,1.7-0.9,2.9-2.8,2.9c-1.9,0-2.9-1.2-2.9-2.9v-7.3H76v7.4c0,3,1.8,5.1,5.5,5.1c3.7,0,5.5-2.1,5.5-5.2v-7.4
		h-2.7V100.5z"/>
	<path d="M95.3,95.3c1.4,0,2.5,0.8,3,1.8l2.3-1.1c-0.9-1.5-2.4-3-5.2-3c-3.6,0-6.5,2.6-6.5,6.4c0,3.8,2.9,6.4,6.5,6.4
		c2.8,0,4.4-1.5,5.2-3l-2.3-1.1c-0.5,1-1.6,1.8-3,1.8c-2.1,0-3.8-1.7-3.8-4C91.6,97,93.2,95.3,95.3,95.3z"/>
	<polygon points="101.4,95.5 105,95.5 105,105.5 107.6,105.5 107.6,95.5 111.2,95.5 111.2,93.2 101.4,93.2 	"/>
	<polygon points="45.4,119 41.9,109.6 39,109.6 43.7,121.9 47,121.9 51.8,109.6 48.8,109.6 	"/>
	<rect x="52.9" y="109.6" width="2.6" height="12.3"/>
	<path d="M62.8,109.6H58v12.3h4.9c3.9,0,6.5-2.4,6.5-6.1C69.3,112,66.7,109.6,62.8,109.6z M62.8,119.6h-2.2v-7.7h2.2
		c2.5,0,3.9,1.7,3.9,3.9C66.7,117.8,65.2,119.6,62.8,119.6z"/>
	<polygon points="71.2,121.9 79.9,121.9 79.9,119.6 73.8,119.6 73.8,116.7 79.8,116.7 79.8,114.5 73.8,114.5 73.8,111.8 79.9,111.8 
		79.9,109.6 71.2,109.6 	"/>
	<path d="M87.8,109.3c-3.7,0-6.4,2.7-6.4,6.4c0,3.7,2.7,6.4,6.4,6.4c3.7,0,6.4-2.7,6.4-6.4C94.3,112,91.5,109.3,87.8,109.3z
		 M87.8,119.8c-2.3,0-3.7-1.8-3.7-4c0-2.3,1.5-4,3.7-4c2.3,0,3.7,1.7,3.7,4C91.6,118,90.1,119.8,87.8,119.8z"/>
</g>
</svg>
