<?xml version="1.0" encoding="utf-8"?>
<!-- Generator: Adobe Illustrator 25.0.1, SVG Export Plug-In . SVG Version: 6.00 Build 0)  -->
<svg version="1.1" id="Layer_1" xmlns="http://www.w3.org/2000/svg" xmlns:xlink="http://www.w3.org/1999/xlink" x="0px" y="0px"
	 viewBox="0 0 137.2 137.8" style="enable-background:new 0 0 137.2 137.8;" xml:space="preserve">
<style type="text/css">
	.st0{fill:#EF2219;}
	.st1{fill:#FFFFFF;}
</style>
<g>
	<path class="st0" d="M128.4,71.5c0,10.5-8,19.4-18.4,20.4c-12.4,1.3-28.6,1.7-40.9,1.7c-11.9,0-28.3-0.4-40.9-1.7
		C17.8,90.8,9.8,82,9.8,71.5V45.9c0-10.5,8-19.4,18.5-20.4c12.6-1.3,28.8-1.8,38.8-1.8c12.7,0,29.9,0.5,42.9,1.8
		c10.5,1,18.5,9.9,18.5,20.4V71.5z"/>
	<path class="st1" d="M55,35.8v45.7c0,1.1,1.2,1.8,2.2,1.3l39.6-22.9c1-0.6,1-2,0-2.6L57.2,34.5C56.2,33.9,55,34.6,55,35.8z"/>
	<path d="M16.2,102.9h-4.6v9.8h2.1v-3.5h2.5c2.1,0,3.3-1.4,3.3-3.1C19.4,104.4,18.3,102.9,16.2,102.9z M15.9,107.4h-2.2v-2.7h2.2
		c0.8,0,1.4,0.5,1.4,1.3C17.3,106.9,16.7,107.4,15.9,107.4z"/>
	<path d="M28.6,106.1c0-1.8-1.2-3.1-3.3-3.1h-4.6v9.8h2.1v-3.5h1.5l1.9,3.5h2.4l-2.2-3.7C27.5,108.7,28.6,107.8,28.6,106.1z
		 M25,107.4h-2.2v-2.7H25c0.8,0,1.5,0.5,1.5,1.3C26.4,106.9,25.8,107.4,25,107.4z"/>
	<path d="M34.7,102.8c-2.9,0-5.1,2.1-5.1,5c0,2.9,2.1,5,5.1,5c3,0,5.1-2.1,5.1-5C39.8,104.9,37.7,102.8,34.7,102.8z M34.7,111
		c-1.8,0-3-1.4-3-3.2c0-1.8,1.2-3.2,3-3.2c1.8,0,3,1.4,3,3.2C37.7,109.6,36.5,111,34.7,111z"/>
	<path d="M45.1,102.9h-3.8v9.8h3.8c3.1,0,5.2-1.9,5.2-4.9C50.3,104.9,48.2,102.9,45.1,102.9z M45.1,110.9h-1.8v-6.1h1.8
		c2,0,3.1,1.3,3.1,3.1C48.2,109.5,47.1,110.9,45.1,110.9z"/>
	<path d="M58.4,108.7c0,1.4-0.7,2.3-2.2,2.3c-1.5,0-2.3-0.9-2.3-2.3v-5.8h-2.1v5.9c0,2.4,1.4,4.1,4.4,4.1c3,0,4.3-1.7,4.3-4.1v-5.8
		h-2.1V108.7z"/>
	<path d="M67.1,104.6c1.1,0,2,0.6,2.4,1.4l1.8-0.9c-0.7-1.2-1.9-2.4-4.2-2.4c-2.9,0-5.1,2-5.1,5c0,3,2.3,5,5.1,5
		c2.2,0,3.5-1.2,4.2-2.4l-1.8-0.9c-0.4,0.8-1.3,1.4-2.4,1.4c-1.7,0-3-1.4-3-3.2S65.4,104.6,67.1,104.6z"/>
	<polygon points="71.9,104.8 74.7,104.8 74.7,112.7 76.8,112.7 76.8,104.8 79.7,104.8 79.7,102.9 71.9,102.9 	"/>
	<polygon points="88.8,110.4 86.1,102.9 83.7,102.9 87.5,112.7 90.1,112.7 93.8,102.9 91.5,102.9 	"/>
	<rect x="94.7" y="102.9" width="2.1" height="9.8"/>
	<path d="M102.6,102.9h-3.8v9.8h3.8c3.1,0,5.2-1.9,5.2-4.9C107.8,104.9,105.6,102.9,102.6,102.9z M102.6,110.9h-1.8v-6.1h1.8
		c2,0,3.1,1.3,3.1,3.1C105.6,109.5,104.5,110.9,102.6,110.9z"/>
	<polygon points="109.2,112.7 116.1,112.7 116.1,110.9 111.3,110.9 111.3,108.6 116,108.6 116,106.8 111.3,106.8 111.3,104.7 
		116.1,104.7 116.1,102.9 109.2,102.9 	"/>
	<path d="M122.4,102.8c-2.9,0-5.1,2.1-5.1,5c0,2.9,2.1,5,5.1,5c3,0,5.1-2.1,5.1-5C127.5,104.9,125.3,102.8,122.4,102.8z M122.4,111
		c-1.8,0-3-1.4-3-3.2c0-1.8,1.2-3.2,3-3.2c1.8,0,3,1.4,3,3.2C125.4,109.6,124.2,111,122.4,111z"/>
</g>
</svg>
